<svg xmlns="http://www.w3.org/2000/svg" xmlns:xlink="http://www.w3.org/1999/xlink" width="500" zoomAndPan="magnify" viewBox="0 0 375 374.999991" height="500" preserveAspectRatio="xMidYMid meet" version="1.0"><defs><g/><clipPath id="43dbb90d69"><path d="M 138 153 L 160.621094 153 L 160.621094 172 L 138 172 Z M 138 153 " clip-rule="nonzero"/></clipPath><clipPath id="46e8774304"><path d="M 123 190 L 155 190 L 155 201.191406 L 123 201.191406 Z M 123 190 " clip-rule="nonzero"/></clipPath><clipPath id="c83968f9b9"><path d="M 77.371094 151 L 123 151 L 123 168 L 77.371094 168 Z M 77.371094 151 " clip-rule="nonzero"/></clipPath><clipPath id="2db1bb69c1"><path d="M 96 109.691406 L 114 109.691406 L 114 121 L 96 121 Z M 96 109.691406 " clip-rule="nonzero"/></clipPath></defs><rect x="-37.5" width="450" fill="#ffffff" y="-37.499999" height="449.999989" fill-opacity="1"/><rect x="-37.5" width="450" fill="#ffffff" y="-37.499999" height="449.999989" fill-opacity="1"/><path fill="#51ade5" d="M 156.816406 133.34375 C 153.476562 136.242188 148.5 139.445312 142.335938 142.597656 L 145.375 150.957031 C 151.207031 147.796875 156.179688 144.40625 159.609375 141.023438 L 156.816406 133.34375 " fill-opacity="1" fill-rule="nonzero"/><path fill="#2c3892" d="M 129.796875 139.339844 C 135.875 136.550781 141.378906 133.445312 145.550781 130.332031 L 142.886719 123.003906 C 139.050781 125.824219 133.597656 128.867188 127.027344 131.722656 L 129.796875 139.339844 " fill-opacity="1" fill-rule="nonzero"/><path fill="#51ade5" d="M 112.808594 122.539062 L 115.148438 128.980469 C 119.808594 127.238281 124.445312 125.0625 128.597656 122.527344 C 128.78125 122.414062 128.964844 122.300781 129.148438 122.183594 L 126.925781 116.074219 C 123.289062 118.292969 118.390625 120.601562 112.808594 122.539062 " fill-opacity="1" fill-rule="nonzero"/><path fill="#2c3892" d="M 150.277344 175.003906 C 145.992188 177.089844 141.1875 179.132812 136 181.03125 L 138.175781 187.019531 C 143.140625 185.148438 147.972656 182.988281 152.328125 180.648438 L 150.277344 175.003906 " fill-opacity="1" fill-rule="nonzero"/><g clip-path="url(#43dbb90d69)"><path fill="#2c3892" d="M 157.894531 153.710938 C 152.773438 156.953125 146.179688 160.332031 138.582031 163.488281 L 141.527344 171.59375 C 148.800781 168.488281 155.476562 164.917969 160.597656 161.144531 L 157.894531 153.710938 " fill-opacity="1" fill-rule="nonzero"/></g><path fill="#2c3892" d="M 139.078125 144.207031 C 134.28125 146.496094 128.886719 148.726562 123.070312 150.765625 L 126.230469 159.453125 C 131.769531 157.441406 137.195312 155.132812 142.144531 152.644531 L 139.078125 144.207031 " fill-opacity="1" fill-rule="nonzero"/><path fill="#51ade5" d="M 119.394531 179.144531 C 125.613281 177.523438 132.054688 175.417969 138.1875 172.972656 L 135.230469 164.839844 C 129.421875 167.113281 123.105469 169.238281 116.460938 171.074219 L 119.394531 179.144531 " fill-opacity="1" fill-rule="nonzero"/><path fill="#51ade5" d="M 132.59375 182.234375 C 128.488281 183.636719 124.171875 184.941406 119.710938 186.09375 C 109.183594 188.65625 95.585938 190.867188 90.578125 186.839844 C 91.914062 188.148438 93.777344 189.808594 95.199219 191.027344 L 96.785156 192.226562 C 102.378906 196.195312 118.828125 193.785156 134.78125 188.25 L 132.59375 182.234375 " fill-opacity="1" fill-rule="nonzero"/><g clip-path="url(#46e8774304)"><path fill="#51ade5" d="M 133.066406 199.804688 C 129.007812 200.785156 126.609375 201.128906 123.5625 201.171875 C 125.011719 201.195312 125.113281 201.1875 127.753906 201.054688 C 128.953125 200.964844 129.074219 200.949219 131.117188 200.6875 C 132.046875 200.550781 132.113281 200.539062 133.800781 200.214844 C 134.582031 200.050781 134.636719 200.039062 136.085938 199.683594 C 136.777344 199.503906 136.804688 199.496094 138.136719 199.101562 C 138.785156 198.902344 138.8125 198.894531 140.070312 198.460938 C 140.710938 198.230469 140.710938 198.230469 141.984375 197.730469 C 142.648438 197.460938 142.648438 197.460938 143.972656 196.871094 C 144.699219 196.535156 144.699219 196.535156 146.148438 195.796875 C 149.820312 193.875 152.453125 191.816406 154.023438 190.585938 C 152.3125 191.914062 145.75 196.5 133.066406 199.804688 " fill-opacity="1" fill-rule="nonzero"/></g><g clip-path="url(#c83968f9b9)"><path fill="#51ade5" d="M 82.417969 165.886719 C 90.335938 168.824219 106.738281 166.089844 122.824219 160.648438 L 119.652344 151.925781 C 116.019531 153.117188 112.242188 154.230469 108.359375 155.226562 C 89.988281 159.71875 78.121094 159.207031 77.390625 153.894531 L 77.394531 154.746094 C 77.488281 156.796875 77.734375 159.519531 77.976562 161.558594 C 78.265625 162.667969 78.75 164.527344 82.417969 165.886719 " fill-opacity="1" fill-rule="nonzero"/></g><path fill="#2c3892" d="M 112.957031 172 C 95.15625 176.308594 83.441406 176.214844 80.796875 171.726562 C 81.667969 174.722656 82.917969 178.316406 85.863281 180.46875 C 90.441406 183.8125 102.34375 183.183594 115.871094 180.015625 L 112.957031 172 " fill-opacity="1" fill-rule="nonzero"/><path fill="#2c3892" d="M 94.21875 149.734375 C 103.710938 148.875 115.746094 145.382812 126.488281 140.804688 L 123.691406 133.113281 C 118.253906 135.296875 112.183594 137.320312 105.722656 138.976562 C 91.953125 142.351562 78.910156 142.910156 80.820312 136.558594 C 80.820312 136.558594 78.925781 140.402344 78.636719 143.425781 C 77.953125 150.621094 89.070312 150.199219 94.21875 149.734375 " fill-opacity="1" fill-rule="nonzero"/><path fill="#2c3892" d="M 111.742188 130.179688 L 109.371094 123.65625 C 108.097656 124.042969 106.796875 124.40625 105.476562 124.746094 C 102.914062 125.375 99.066406 126.226562 95.269531 126.34375 C 93.0625 126.414062 86.226562 126.246094 90.839844 121.222656 C 89.34375 122.769531 89.253906 122.878906 86.972656 125.710938 L 86.351562 126.550781 C 85.808594 127.378906 85.246094 128.234375 85.03125 129.242188 C 83.75 135.339844 97.304688 134.933594 111.742188 130.179688 " fill-opacity="1" fill-rule="nonzero"/><g clip-path="url(#2db1bb69c1)"><path fill="#51ade5" d="M 113.832031 116.5625 L 112.351562 112.496094 C 110.96875 113.117188 109.371094 113.683594 107.730469 114.089844 C 104.355469 114.949219 103.21875 114.496094 102.953125 114.339844 C 101.78125 113.640625 104.117188 111.5625 109.339844 109.695312 C 103.011719 111.65625 96.917969 115.640625 96.554688 118.058594 C 96.023438 121.597656 105.90625 120.195312 113.832031 116.5625 " fill-opacity="1" fill-rule="nonzero"/></g><path fill="#2c3892" d="M 145.945312 189.027344 C 141.460938 190.957031 136.394531 192.796875 130.902344 194.40625 L 132.207031 197.996094 C 137.25 196.601562 142.445312 194.648438 147.164062 192.375 L 145.945312 189.027344 " fill-opacity="1" fill-rule="nonzero"/><path fill="#2c3892" d="M 127.414062 195.382812 C 127.121094 195.460938 126.832031 195.535156 126.539062 195.613281 C 111.335938 199.300781 106.632812 197.589844 105.085938 197.027344 C 106.152344 197.503906 107.613281 198.050781 108.699219 198.480469 C 110.152344 198.960938 112.125 199.519531 113.601562 199.921875 C 117.554688 200.664062 122.914062 200.191406 128.6875 198.882812 L 127.414062 195.382812 " fill-opacity="1" fill-rule="nonzero"/><g fill="#2c3892" fill-opacity="1"><g transform="translate(158.801694, 194.556409)"><g><path d="M 7.296875 -1.046875 C 6.984375 -0.679688 6.546875 -0.394531 5.984375 -0.1875 C 5.429688 0.0078125 4.8125 0.109375 4.125 0.109375 C 3.40625 0.109375 2.773438 -0.046875 2.234375 -0.359375 C 1.691406 -0.671875 1.273438 -1.125 0.984375 -1.71875 C 0.691406 -2.3125 0.539062 -3.007812 0.53125 -3.8125 L 0.53125 -4.375 C 0.53125 -5.207031 0.671875 -5.925781 0.953125 -6.53125 C 1.234375 -7.132812 1.632812 -7.597656 2.15625 -7.921875 C 2.6875 -8.242188 3.300781 -8.40625 4 -8.40625 C 4.988281 -8.40625 5.757812 -8.171875 6.3125 -7.703125 C 6.863281 -7.234375 7.191406 -6.550781 7.296875 -5.65625 L 5.640625 -5.65625 C 5.554688 -6.125 5.382812 -6.46875 5.125 -6.6875 C 4.863281 -6.90625 4.507812 -7.015625 4.0625 -7.015625 C 3.476562 -7.015625 3.035156 -6.796875 2.734375 -6.359375 C 2.429688 -5.929688 2.273438 -5.285156 2.265625 -4.421875 L 2.265625 -3.890625 C 2.265625 -3.023438 2.429688 -2.367188 2.765625 -1.921875 C 3.097656 -1.484375 3.582031 -1.265625 4.21875 -1.265625 C 4.851562 -1.265625 5.3125 -1.398438 5.59375 -1.671875 L 5.59375 -3.09375 L 4.03125 -3.09375 L 4.03125 -4.359375 L 7.296875 -4.359375 Z M 7.296875 -1.046875 "/></g></g></g><g fill="#2c3892" fill-opacity="1"><g transform="translate(168.587491, 194.556409)"><g><path d="M 2.453125 -1.375 L 6.078125 -1.375 L 6.078125 0 L 0.734375 0 L 0.734375 -8.28125 L 2.453125 -8.28125 Z M 2.453125 -1.375 "/></g></g></g><g fill="#2c3892" fill-opacity="1"><g transform="translate(176.74486, 194.556409)"><g><path d="M 7.546875 -3.953125 C 7.546875 -3.140625 7.398438 -2.425781 7.109375 -1.8125 C 6.828125 -1.195312 6.414062 -0.722656 5.875 -0.390625 C 5.34375 -0.0546875 4.726562 0.109375 4.03125 0.109375 C 3.34375 0.109375 2.726562 -0.0507812 2.1875 -0.375 C 1.65625 -0.707031 1.238281 -1.179688 0.9375 -1.796875 C 0.644531 -2.410156 0.492188 -3.113281 0.484375 -3.90625 L 0.484375 -4.3125 C 0.484375 -5.132812 0.628906 -5.851562 0.921875 -6.46875 C 1.222656 -7.09375 1.640625 -7.570312 2.171875 -7.90625 C 2.710938 -8.238281 3.328125 -8.40625 4.015625 -8.40625 C 4.703125 -8.40625 5.316406 -8.238281 5.859375 -7.90625 C 6.398438 -7.570312 6.816406 -7.09375 7.109375 -6.46875 C 7.398438 -5.851562 7.546875 -5.140625 7.546875 -4.328125 Z M 5.8125 -4.328125 C 5.8125 -5.203125 5.65625 -5.863281 5.34375 -6.3125 C 5.039062 -6.757812 4.597656 -6.984375 4.015625 -6.984375 C 3.441406 -6.984375 3 -6.757812 2.6875 -6.3125 C 2.375 -5.875 2.21875 -5.222656 2.21875 -4.359375 L 2.21875 -3.953125 C 2.21875 -3.109375 2.375 -2.453125 2.6875 -1.984375 C 3 -1.515625 3.445312 -1.28125 4.03125 -1.28125 C 4.601562 -1.28125 5.039062 -1.503906 5.34375 -1.953125 C 5.65625 -2.410156 5.8125 -3.066406 5.8125 -3.921875 Z M 5.8125 -4.328125 "/></g></g></g><g fill="#2c3892" fill-opacity="1"><g transform="translate(186.638839, 194.556409)"><g><path d="M 0.734375 0 L 0.734375 -8.28125 L 3.640625 -8.28125 C 4.648438 -8.28125 5.410156 -8.085938 5.921875 -7.703125 C 6.441406 -7.316406 6.703125 -6.753906 6.703125 -6.015625 C 6.703125 -5.609375 6.597656 -5.25 6.390625 -4.9375 C 6.179688 -4.632812 5.894531 -4.410156 5.53125 -4.265625 C 5.945312 -4.160156 6.273438 -3.945312 6.515625 -3.625 C 6.765625 -3.300781 6.890625 -2.90625 6.890625 -2.4375 C 6.890625 -1.632812 6.632812 -1.03125 6.125 -0.625 C 5.625 -0.21875 4.90625 -0.0078125 3.96875 0 Z M 2.453125 -3.609375 L 2.453125 -1.375 L 3.90625 -1.375 C 4.3125 -1.375 4.625 -1.46875 4.84375 -1.65625 C 5.070312 -1.851562 5.1875 -2.117188 5.1875 -2.453125 C 5.1875 -3.210938 4.796875 -3.597656 4.015625 -3.609375 Z M 2.453125 -4.8125 L 3.703125 -4.8125 C 4.566406 -4.832031 5 -5.175781 5 -5.84375 C 5 -6.21875 4.890625 -6.488281 4.671875 -6.65625 C 4.453125 -6.820312 4.109375 -6.90625 3.640625 -6.90625 L 2.453125 -6.90625 Z M 2.453125 -4.8125 "/></g></g></g><g fill="#2c3892" fill-opacity="1"><g transform="translate(195.92358, 194.556409)"><g><path d="M 5.421875 -1.703125 L 2.421875 -1.703125 L 1.859375 0 L 0.046875 0 L 3.125 -8.28125 L 4.703125 -8.28125 L 7.8125 0 L 6 0 Z M 2.890625 -3.09375 L 4.953125 -3.09375 L 3.921875 -6.1875 Z M 2.890625 -3.09375 "/></g></g></g><g fill="#2c3892" fill-opacity="1"><g transform="translate(205.612581, 194.556409)"><g><path d="M 2.453125 -1.375 L 6.078125 -1.375 L 6.078125 0 L 0.734375 0 L 0.734375 -8.28125 L 2.453125 -8.28125 Z M 2.453125 -1.375 "/></g></g></g><g fill="#2c3892" fill-opacity="1"><g transform="translate(213.769953, 194.556409)"><g/></g></g><g fill="#2c3892" fill-opacity="1"><g transform="translate(218.516734, 194.556409)"><g><path d="M 5.03125 -2.171875 C 5.03125 -2.492188 4.914062 -2.738281 4.6875 -2.90625 C 4.46875 -3.082031 4.0625 -3.265625 3.46875 -3.453125 C 2.875 -3.648438 2.40625 -3.84375 2.0625 -4.03125 C 1.125 -4.539062 0.65625 -5.222656 0.65625 -6.078125 C 0.65625 -6.523438 0.78125 -6.925781 1.03125 -7.28125 C 1.28125 -7.632812 1.640625 -7.910156 2.109375 -8.109375 C 2.585938 -8.304688 3.117188 -8.40625 3.703125 -8.40625 C 4.296875 -8.40625 4.820312 -8.296875 5.28125 -8.078125 C 5.75 -7.859375 6.109375 -7.550781 6.359375 -7.15625 C 6.617188 -6.769531 6.75 -6.332031 6.75 -5.84375 L 5.046875 -5.84375 C 5.046875 -6.21875 4.925781 -6.507812 4.6875 -6.71875 C 4.445312 -6.9375 4.109375 -7.046875 3.671875 -7.046875 C 3.253906 -7.046875 2.929688 -6.957031 2.703125 -6.78125 C 2.472656 -6.601562 2.359375 -6.367188 2.359375 -6.078125 C 2.359375 -5.804688 2.492188 -5.578125 2.765625 -5.390625 C 3.035156 -5.210938 3.4375 -5.046875 3.96875 -4.890625 C 4.9375 -4.597656 5.640625 -4.234375 6.078125 -3.796875 C 6.523438 -3.367188 6.75 -2.832031 6.75 -2.1875 C 6.75 -1.46875 6.476562 -0.90625 5.9375 -0.5 C 5.394531 -0.09375 4.664062 0.109375 3.75 0.109375 C 3.101562 0.109375 2.519531 -0.00390625 2 -0.234375 C 1.476562 -0.472656 1.078125 -0.789062 0.796875 -1.1875 C 0.523438 -1.59375 0.390625 -2.066406 0.390625 -2.609375 L 2.109375 -2.609375 C 2.109375 -1.691406 2.65625 -1.234375 3.75 -1.234375 C 4.15625 -1.234375 4.46875 -1.316406 4.6875 -1.484375 C 4.914062 -1.648438 5.03125 -1.878906 5.03125 -2.171875 Z M 5.03125 -2.171875 "/></g></g></g><g fill="#2c3892" fill-opacity="1"><g transform="translate(227.528173, 194.556409)"><g><path d="M 3.59375 -4.546875 L 5.328125 -8.28125 L 7.1875 -8.28125 L 4.46875 -3 L 4.46875 0 L 2.734375 0 L 2.734375 -3 L 0.015625 -8.28125 L 1.890625 -8.28125 Z M 3.59375 -4.546875 "/></g></g></g><g fill="#2c3892" fill-opacity="1"><g transform="translate(236.579468, 194.556409)"><g><path d="M 5.03125 -2.171875 C 5.03125 -2.492188 4.914062 -2.738281 4.6875 -2.90625 C 4.46875 -3.082031 4.0625 -3.265625 3.46875 -3.453125 C 2.875 -3.648438 2.40625 -3.84375 2.0625 -4.03125 C 1.125 -4.539062 0.65625 -5.222656 0.65625 -6.078125 C 0.65625 -6.523438 0.78125 -6.925781 1.03125 -7.28125 C 1.28125 -7.632812 1.640625 -7.910156 2.109375 -8.109375 C 2.585938 -8.304688 3.117188 -8.40625 3.703125 -8.40625 C 4.296875 -8.40625 4.820312 -8.296875 5.28125 -8.078125 C 5.75 -7.859375 6.109375 -7.550781 6.359375 -7.15625 C 6.617188 -6.769531 6.75 -6.332031 6.75 -5.84375 L 5.046875 -5.84375 C 5.046875 -6.21875 4.925781 -6.507812 4.6875 -6.71875 C 4.445312 -6.9375 4.109375 -7.046875 3.671875 -7.046875 C 3.253906 -7.046875 2.929688 -6.957031 2.703125 -6.78125 C 2.472656 -6.601562 2.359375 -6.367188 2.359375 -6.078125 C 2.359375 -5.804688 2.492188 -5.578125 2.765625 -5.390625 C 3.035156 -5.210938 3.4375 -5.046875 3.96875 -4.890625 C 4.9375 -4.597656 5.640625 -4.234375 6.078125 -3.796875 C 6.523438 -3.367188 6.75 -2.832031 6.75 -2.1875 C 6.75 -1.46875 6.476562 -0.90625 5.9375 -0.5 C 5.394531 -0.09375 4.664062 0.109375 3.75 0.109375 C 3.101562 0.109375 2.519531 -0.00390625 2 -0.234375 C 1.476562 -0.472656 1.078125 -0.789062 0.796875 -1.1875 C 0.523438 -1.59375 0.390625 -2.066406 0.390625 -2.609375 L 2.109375 -2.609375 C 2.109375 -1.691406 2.65625 -1.234375 3.75 -1.234375 C 4.15625 -1.234375 4.46875 -1.316406 4.6875 -1.484375 C 4.914062 -1.648438 5.03125 -1.878906 5.03125 -2.171875 Z M 5.03125 -2.171875 "/></g></g></g><g fill="#2c3892" fill-opacity="1"><g transform="translate(245.590906, 194.556409)"><g><path d="M 6.984375 -6.90625 L 4.4375 -6.90625 L 4.4375 0 L 2.734375 0 L 2.734375 -6.90625 L 0.234375 -6.90625 L 0.234375 -8.28125 L 6.984375 -8.28125 Z M 6.984375 -6.90625 "/></g></g></g><g fill="#2c3892" fill-opacity="1"><g transform="translate(254.647895, 194.556409)"><g><path d="M 5.71875 -3.59375 L 2.453125 -3.59375 L 2.453125 -1.375 L 6.296875 -1.375 L 6.296875 0 L 0.734375 0 L 0.734375 -8.28125 L 6.28125 -8.28125 L 6.28125 -6.90625 L 2.453125 -6.90625 L 2.453125 -4.921875 L 5.71875 -4.921875 Z M 5.71875 -3.59375 "/></g></g></g><g fill="#2c3892" fill-opacity="1"><g transform="translate(263.050103, 194.556409)"><g><path d="M 2.96875 -8.28125 L 5.09375 -2.28125 L 7.21875 -8.28125 L 9.453125 -8.28125 L 9.453125 0 L 7.75 0 L 7.75 -2.265625 L 7.921875 -6.171875 L 5.6875 0 L 4.5 0 L 2.28125 -6.171875 L 2.453125 -2.265625 L 2.453125 0 L 0.734375 0 L 0.734375 -8.28125 Z M 2.96875 -8.28125 "/></g></g></g><g fill="#2c3892" fill-opacity="1"><g transform="translate(275.107726, 194.556409)"><g><path d="M 5.03125 -2.171875 C 5.03125 -2.492188 4.914062 -2.738281 4.6875 -2.90625 C 4.46875 -3.082031 4.0625 -3.265625 3.46875 -3.453125 C 2.875 -3.648438 2.40625 -3.84375 2.0625 -4.03125 C 1.125 -4.539062 0.65625 -5.222656 0.65625 -6.078125 C 0.65625 -6.523438 0.78125 -6.925781 1.03125 -7.28125 C 1.28125 -7.632812 1.640625 -7.910156 2.109375 -8.109375 C 2.585938 -8.304688 3.117188 -8.40625 3.703125 -8.40625 C 4.296875 -8.40625 4.820312 -8.296875 5.28125 -8.078125 C 5.75 -7.859375 6.109375 -7.550781 6.359375 -7.15625 C 6.617188 -6.769531 6.75 -6.332031 6.75 -5.84375 L 5.046875 -5.84375 C 5.046875 -6.21875 4.925781 -6.507812 4.6875 -6.71875 C 4.445312 -6.9375 4.109375 -7.046875 3.671875 -7.046875 C 3.253906 -7.046875 2.929688 -6.957031 2.703125 -6.78125 C 2.472656 -6.601562 2.359375 -6.367188 2.359375 -6.078125 C 2.359375 -5.804688 2.492188 -5.578125 2.765625 -5.390625 C 3.035156 -5.210938 3.4375 -5.046875 3.96875 -4.890625 C 4.9375 -4.597656 5.640625 -4.234375 6.078125 -3.796875 C 6.523438 -3.367188 6.75 -2.832031 6.75 -2.1875 C 6.75 -1.46875 6.476562 -0.90625 5.9375 -0.5 C 5.394531 -0.09375 4.664062 0.109375 3.75 0.109375 C 3.101562 0.109375 2.519531 -0.00390625 2 -0.234375 C 1.476562 -0.472656 1.078125 -0.789062 0.796875 -1.1875 C 0.523438 -1.59375 0.390625 -2.066406 0.390625 -2.609375 L 2.109375 -2.609375 C 2.109375 -1.691406 2.65625 -1.234375 3.75 -1.234375 C 4.15625 -1.234375 4.46875 -1.316406 4.6875 -1.484375 C 4.914062 -1.648438 5.03125 -1.878906 5.03125 -2.171875 Z M 5.03125 -2.171875 "/></g></g></g><g fill="#000000" fill-opacity="1"><g transform="translate(162.999692, 173.892939)"><g><path d="M 4.890625 -36.03125 L 15.1875 -36.03125 C 19.664062 -36.03125 23.066406 -35.359375 25.390625 -34.015625 C 27.710938 -32.671875 28.875 -30.367188 28.875 -27.109375 C 28.875 -24.984375 28.28125 -23.222656 27.09375 -21.828125 C 25.914062 -20.429688 24.21875 -19.53125 22 -19.125 L 22 -18.875 C 23.519531 -18.601562 24.890625 -18.144531 26.109375 -17.5 C 27.335938 -16.863281 28.304688 -15.957031 29.015625 -14.78125 C 29.722656 -13.601562 30.078125 -12.09375 30.078125 -10.25 C 30.078125 -6.976562 28.957031 -4.453125 26.71875 -2.671875 C 24.476562 -0.890625 21.425781 0 17.5625 0 L 4.890625 0 Z M 9.4375 -20.6875 L 16.09375 -20.6875 C 19.15625 -20.6875 21.265625 -21.179688 22.421875 -22.171875 C 23.585938 -23.171875 24.171875 -24.644531 24.171875 -26.59375 C 24.171875 -28.582031 23.472656 -30.003906 22.078125 -30.859375 C 20.679688 -31.722656 18.453125 -32.15625 15.390625 -32.15625 L 9.4375 -32.15625 Z M 9.4375 -16.90625 L 9.4375 -3.828125 L 16.703125 -3.828125 C 19.898438 -3.828125 22.117188 -4.445312 23.359375 -5.6875 C 24.609375 -6.9375 25.234375 -8.570312 25.234375 -10.59375 C 25.234375 -12.476562 24.582031 -14 23.28125 -15.15625 C 21.988281 -16.320312 19.679688 -16.90625 16.359375 -16.90625 Z M 9.4375 -16.90625 "/></g></g></g><g fill="#000000" fill-opacity="1"><g transform="translate(195.806972, 173.892939)"><g><path d="M 20.546875 -19.03125 L 33 -19.03125 L 33 -1.359375 C 31.050781 -0.722656 29.082031 -0.253906 27.09375 0.046875 C 25.113281 0.347656 22.863281 0.5 20.34375 0.5 C 16.601562 0.5 13.453125 -0.242188 10.890625 -1.734375 C 8.335938 -3.234375 6.394531 -5.367188 5.0625 -8.140625 C 3.738281 -10.921875 3.078125 -14.210938 3.078125 -18.015625 C 3.078125 -21.753906 3.804688 -25.007812 5.265625 -27.78125 C 6.734375 -30.5625 8.863281 -32.71875 11.65625 -34.25 C 14.445312 -35.78125 17.8125 -36.546875 21.75 -36.546875 C 23.769531 -36.546875 25.679688 -36.359375 27.484375 -35.984375 C 29.285156 -35.609375 30.957031 -35.085938 32.5 -34.421875 L 30.78125 -30.484375 C 29.507812 -31.023438 28.070312 -31.503906 26.46875 -31.921875 C 24.875 -32.335938 23.21875 -32.546875 21.5 -32.546875 C 17.195312 -32.546875 13.84375 -31.242188 11.4375 -28.640625 C 9.03125 -26.035156 7.828125 -22.492188 7.828125 -18.015625 C 7.828125 -15.160156 8.285156 -12.628906 9.203125 -10.421875 C 10.128906 -8.210938 11.582031 -6.492188 13.5625 -5.265625 C 15.550781 -4.046875 18.164062 -3.4375 21.40625 -3.4375 C 22.976562 -3.4375 24.320312 -3.519531 25.4375 -3.6875 C 26.550781 -3.851562 27.5625 -4.054688 28.46875 -4.296875 L 28.46875 -14.984375 L 20.546875 -14.984375 Z M 20.546875 -19.03125 "/></g></g></g><g fill="#000000" fill-opacity="1"><g transform="translate(232.551121, 173.892939)"><g><path d="M 25.328125 -9.640625 C 25.328125 -6.441406 24.164062 -3.953125 21.84375 -2.171875 C 19.53125 -0.390625 16.40625 0.5 12.46875 0.5 C 10.445312 0.5 8.578125 0.347656 6.859375 0.046875 C 5.148438 -0.253906 3.722656 -0.675781 2.578125 -1.21875 L 2.578125 -5.546875 C 3.785156 -5.015625 5.289062 -4.53125 7.09375 -4.09375 C 8.894531 -3.65625 10.753906 -3.4375 12.671875 -3.4375 C 15.328125 -3.4375 17.34375 -3.957031 18.71875 -5 C 20.101562 -6.039062 20.796875 -7.453125 20.796875 -9.234375 C 20.796875 -10.410156 20.539062 -11.398438 20.03125 -12.203125 C 19.53125 -13.015625 18.65625 -13.753906 17.40625 -14.421875 C 16.164062 -15.097656 14.46875 -15.84375 12.3125 -16.65625 C 9.21875 -17.757812 6.894531 -19.117188 5.34375 -20.734375 C 3.800781 -22.359375 3.03125 -24.566406 3.03125 -27.359375 C 3.03125 -29.242188 3.515625 -30.875 4.484375 -32.25 C 5.460938 -33.625 6.8125 -34.679688 8.53125 -35.421875 C 10.25 -36.171875 12.25 -36.546875 14.53125 -36.546875 C 16.488281 -36.546875 18.289062 -36.359375 19.9375 -35.984375 C 21.582031 -35.609375 23.097656 -35.117188 24.484375 -34.515625 L 23.0625 -30.640625 C 21.820312 -31.171875 20.457031 -31.617188 18.96875 -31.984375 C 17.488281 -32.359375 15.976562 -32.546875 14.4375 -32.546875 C 12.175781 -32.546875 10.472656 -32.066406 9.328125 -31.109375 C 8.191406 -30.148438 7.625 -28.878906 7.625 -27.296875 C 7.625 -26.085938 7.875 -25.078125 8.375 -24.265625 C 8.882812 -23.460938 9.707031 -22.734375 10.84375 -22.078125 C 11.988281 -21.421875 13.539062 -20.738281 15.5 -20.03125 C 17.613281 -19.257812 19.398438 -18.425781 20.859375 -17.53125 C 22.328125 -16.644531 23.4375 -15.578125 24.1875 -14.328125 C 24.945312 -13.085938 25.328125 -11.523438 25.328125 -9.640625 Z M 25.328125 -9.640625 "/></g></g></g></svg>